<svg width="131" height="180" viewBox="0 0 131 180" fill="none" xmlns="http://www.w3.org/2000/svg">
<path opacity="0.1" d="M64.0576 179.301C55.7167 179.301 47.9598 178.3 40.7866 176.298C33.6135 174.129 27.1911 170.876 21.5193 166.539C16.0144 162.202 11.3435 156.697 7.50675 150.024C3.83678 143.352 1.33453 135.428 0 126.253H35.2817C36.2826 129.589 38.1176 132.759 40.7866 135.761C43.4557 138.764 46.792 141.183 50.7956 143.018C54.9661 144.853 59.6369 145.77 64.8082 145.77C71.1473 145.77 76.4854 144.686 80.8226 142.518C85.1598 140.182 88.4962 137.013 90.8316 133.009C93.167 129.005 94.3348 124.251 94.3348 118.746C94.3348 110.405 91.6657 103.733 86.3276 98.7282C81.1562 93.5569 73.8163 90.9712 64.3078 90.9712C58.8028 90.9712 53.6315 91.9721 48.7938 93.9739C44.123 95.8089 39.6189 98.3946 35.2817 101.731H4.75427L8.00719 0.139648H124.612V32.9191H41.7875L39.7857 68.9515C44.7902 65.4483 50.5454 63.0295 57.0513 61.6949C63.7239 60.1936 70.3132 59.5263 76.819 59.6931C88.3294 60.0268 98.0881 62.529 106.095 67.1999C114.103 71.8707 120.191 78.3766 124.362 86.7174C128.699 95.0583 130.868 104.817 130.868 115.994C130.868 129.506 127.865 141.016 121.859 150.525C116.021 160.033 108.014 167.206 97.8379 172.044C87.8289 176.882 76.5688 179.301 64.0576 179.301Z" fill="black"/>
</svg>
